<svg xmlns="http://www.w3.org/2000/svg" style="display:none">

  <symbol id="bag" viewBox="0 0 24 24">
    <path d="M8 8 Q8 2 12 2 Q16 2 16 8" fill="currentColor" stroke="currentColor" stroke-linecap="round" stroke-linejoin="round"/>
    <path d="M6 8 H18 L21 22 H3 Z" fill="currentColor" stroke="currentColor" stroke-linecap="round" stroke-linejoin="round"/>
  </symbol>

  <symbol id="search-normal" viewBox="0 0 24 24">
    <circle cx="11" cy="11" r="7" fill="none" stroke="currentColor" stroke-width="1.8"/>
    <path d="M16.5 16.5 L21 21" fill="none" stroke="currentColor" stroke-width="1.8" stroke-linecap="round"/>
  </symbol>

  <symbol id="profile" viewBox="0 0 24 24">
    <path d="M12.1605 10.87C12.0605 10.86 11.9405 10.86 11.8305 10.87C9.45055 10.79 7.56055 8.84 7.56055 6.44C7.56055 3.99 9.54055 2 12.0005 2C14.4505 2 16.4405 3.99 16.4405 6.44C16.4305 8.84 14.5405 10.79 12.1605 10.87Z" fill="currentColor" stroke="currentColor" stroke-linecap="round" stroke-linejoin="round"/>
    <path d="M7.1607 14.56C4.7407 16.18 4.7407 18.82 7.1607 20.43C9.9107 22.27 14.4207 22.27 17.1707 20.43C19.5907 18.81 19.5907 16.17 17.1707 14.56C14.4307 12.73 9.9207 12.73 7.1607 14.56Z" fill="currentColor" stroke="currentColor" stroke-linecap="round" stroke-linejoin="round"/>
  </symbol>
  
  <!-- Mismo corazón, solo contorno: producto NO guardado en favoritos -->
  <symbol id="heart-outline" viewBox="0 0 24 24">
    <path d="M12 21C12 21 3 14 3 8a5 5 0 0 1 9-3 5 5 0 0 1 9 3c0 6-9 13-9 13z" fill="none" stroke="currentColor" stroke-width="1.8" stroke-linecap="round" stroke-linejoin="round"/>
  </symbol>

  <symbol id="heart" viewBox="0 0 24 24">
    <path d="M12 21C12 21 3 14 3 8a5 5 0 0 1 9-3 5 5 0 0 1 9 3c0 6-9 13-9 13z" fill="currentColor" stroke="currentColor" stroke-linecap="round" stroke-linejoin="round"/>
  </symbol>

  <symbol id="star" viewBox="0 0 24 24">
    <path d="M12 2l2.9 6.4 6.9 0.6-5.1 4.6 1.6 6.8L12 17l-6.3 3.4 1.6-6.8L2.2 9l6.9-0.6z" fill="currentColor" stroke="currentColor" stroke-width="1.5" stroke-linecap="round" stroke-linejoin="round"/>
  </symbol>

  <symbol id="google" viewBox="0 0 24 24">
    <path d="M21.7392 11.07C21.6892 10.56 21.2592 10.18 20.7492 10.18H13.1992C12.6492 10.18 12.1992 10.63 12.1992 11.18V12.89C12.1992 13.44 12.6492 13.89 13.1992 13.89H17.7092C17.5992 14.81 16.9992 16.2 15.6692 17.13C14.8192 17.72 13.6892 18.13 12.1992 18.13C12.1292 18.13 12.0692 18.13 11.9992 18.12C9.44922 18.04 7.28922 16.33 6.50922 13.98C6.29922 13.35 6.17922 12.69 6.17922 12C6.17922 11.31 6.29922 10.64 6.49922 10.02C6.55922 9.83999 6.62922 9.66001 6.70922 9.48001C7.62922 7.41001 9.63922 5.95 11.9992 5.88C12.0592 5.87 12.1292 5.87 12.1992 5.87C13.6292 5.87 14.6992 6.33999 15.4492 6.85999C15.8392 7.12999 16.3592 7.06999 16.6992 6.73999L18.0892 5.38C18.5292 4.95 18.4892 4.21999 17.9892 3.85999C16.3992 2.68999 14.4592 2 12.1992 2C12.1292 2 12.0692 2.00001 11.9992 2.01001C8.16922 2.08001 4.87922 4.30001 3.26922 7.51001C2.58922 8.87001 2.19922 10.39 2.19922 12C2.19922 13.61 2.58922 15.13 3.26922 16.49H3.27922C4.88922 19.7 8.17922 21.92 11.9992 21.99C12.0692 22 12.1292 22 12.1992 22C14.8992 22 17.1692 21.11 18.8192 19.58C20.7092 17.83 21.7992 15.27 21.7992 12.22C21.7992 11.79 21.7792 11.42 21.7392 11.07Z" fill="currentColor"/>
  </symbol>

  <!-- <symbol id="search-normal" viewBox="0 0 24 24">
  </symbol> -->

  <!-- <symbol id="search-normal" viewBox="0 0 24 24">
  </symbol> -->


</svg>